<svg width="1707" height="951" viewBox="0 0 1707 951" fill="none"
    xmlns="http://www.w3.org/2000/svg">
    <path opacity="0.4" d="M84.6674 927.836C50.7582 817.434 17.6585 698.272 46.1247 582.675C81.145 440.349 195.13 363.418 339.45 369.743C552.279 379.094 722.647 543.161 922.199 601.394C1336.87 722.434 1620.46 400.024 1705.9 24.4649C1711.16 1.35967 1675.69 -9.31072 1670.39 13.9757C1617.34 247.22 1495.77 488.674 1253.54 568.994C997.232 653.964 780.335 491.817 558.844 391.094C422.245 328.962 242.064 295.008 115.228 398.208C-48.0908 531.085 -4.99309 762.787 48.7664 936.94C55.7933 959.651 91.6752 950.638 84.6674 927.836Z" fill="#697DDB"/>
</svg>
